<?xml version="1.0" standalone="no"?>
<!DOCTYPE svg PUBLIC "-//W3C//DTD SVG 20010904//EN"
 "http://www.w3.org/TR/2001/REC-SVG-20010904/DTD/svg10.dtd">
<svg version="1.0" xmlns="http://www.w3.org/2000/svg"
 width="256.000000pt" height="256.000000pt" viewBox="0 0 256.000000 256.000000"
 preserveAspectRatio="xMidYMid meet">

<g transform="translate(0.000000,256.000000) scale(0.100000,-0.100000)"
fill="#000000" stroke="none">
<path d="M443 2545 c-204 -55 -375 -228 -428 -432 -22 -85 -22 -1581 0 -1666
54 -207 225 -378 432 -432 85 -22 1581 -22 1666 0 207 54 378 225 432 432 22
85 22 1581 0 1666 -54 208 -224 377 -432 431 -53 14 -163 16 -839 15 -636 0
-789 -3 -831 -14z m799 -967 c110 -34 164 -177 97 -262 -27 -34 -24 -52 14
-96 73 -85 68 -189 -13 -270 -85 -86 -202 -89 -295 -7 -43 37 -75 103 -75 154
0 33 48 131 71 146 25 15 24 32 -3 70 -48 68 -31 182 36 231 59 44 103 53 168
34z m608 -1 c72 -26 117 -72 133 -139 4 -14 10 -33 13 -42 5 -13 -1 -16 -30
-16 -31 0 -37 4 -42 28 -30 121 -199 152 -264 47 -22 -35 -29 -148 -10 -160 5
-3 22 2 37 12 20 13 46 18 98 18 62 -1 76 -4 111 -30 120 -86 135 -245 34
-345 -43 -43 -101 -70 -150 -70 -78 0 -177 72 -201 146 -6 22 -14 107 -16 190
-6 178 8 243 64 304 54 61 147 85 223 57z m-1209 -442 c18 -25 38 -45 45 -45
6 0 27 20 45 45 30 38 39 44 72 45 20 0 37 -3 37 -7 0 -5 -25 -37 -55 -73 -30
-35 -55 -68 -55 -73 0 -5 25 -37 55 -70 30 -34 55 -65 55 -69 0 -5 -15 -8 -34
-8 -28 0 -41 8 -72 46 -45 52 -56 51 -96 -6 -25 -35 -33 -40 -68 -40 -35 0
-54 12 -32 22 16 7 102 116 102 129 0 8 -25 42 -55 76 -30 33 -55 64 -55 67 0
3 18 6 39 6 36 0 43 -5 72 -45z"/>
<path d="M1130 1504 c-31 -20 -60 -67 -60 -99 0 -14 16 -41 38 -65 32 -33 45
-40 77 -40 75 0 140 79 115 140 -29 71 -111 101 -170 64z"/>
<path d="M1149 1226 c-94 -29 -136 -126 -89 -204 57 -93 196 -96 255 -5 25 38
23 114 -5 153 -36 50 -105 74 -161 56z"/>
<path d="M1715 1248 c-56 -32 -75 -70 -75 -144 0 -46 5 -64 26 -91 46 -61 125
-81 184 -47 41 25 80 91 80 136 0 51 -33 114 -73 138 -36 22 -110 26 -142 8z"/>
</g>
</svg>
